# xmcd
#
# Track frame offsets: 
#        150
#        13799
#        23806
#        35864
#        48424
#        74759
#        86660
#        98279
#        111368
#        131399
#        144345
#        158754
#        176678
#        190801
#        202825
#        215994
#        229149
#        241806
#        259214
#        273739
#        288921
#        291631
#        303584
#        315294
#        326217
#
# Disc length: 4575 seconds
#
# Revision: 1
# Processed by: cddbd v1.5.2PL0 Copyright (c) Steve Scherf et al.
# Submitted via: ExactAudioCopy v1.0b1
#
DISCID=7c11dd19
DTITLE=Lou Rawls - I Can't Make It Alone: The Axelrod Years
DYEAR=1900
DGENRE=Jazz
TTITLE0=I Can't Make It Alone
TTITLE1=Love Is A Hurting Thing
TTITLE2=When She Speaks
TTITLE3=(How Do I Say) I Don't Love You Anymore
TTITLE4=Season Of The Witch
TTITLE5=Fa Fa Fa Fa Fa (Sad Song)
TTITLE6=When Love Goes Wrong
TTITLE7=Feeling Alright
TTITLE8=You Made Me So Very Happy
TTITLE9=Your Good Thing (Is About To End)
TTITLE10=You're Good For Me
TTITLE11=Dead End Street
TTITLE12=Don't Explain
TTITLE13=A Whole Lotta Woman
TTITLE14=It's An Uphill Climb (To The Bottom)
TTITLE15=For What It's Worth
TTITLE16=Gentle on My Mind
TTITLE17=All God's Children
TTITLE18=How Can That Be
TTITLE19=Bring It On Home To Me
TTITLE20=Can You Dig It (Monologue)
TTITLE21=Take Me For What I Am
TTITLE22=Evil Woman
TTITLE23=Soul Serenade
TTITLE24=When A Man Loves A Woman
EXTD=
EXTT0=
EXTT1=
EXTT2=
EXTT3=
EXTT4=
EXTT5=
EXTT6=
EXTT7=
EXTT8=
EXTT9=
EXTT10=
EXTT11=
EXTT12=
EXTT13=
EXTT14=
EXTT15=
EXTT16=
EXTT17=
EXTT18=
EXTT19=
EXTT20=
EXTT21=
EXTT22=
EXTT23=
EXTT24=
PLAYORDER=
